<svg xmlns="http://www.w3.org/2000/svg" width="16" height="16" viewBox="0 0 16 16">
  <path fill="#2e3436" d="M1.200 3.500L2.062 1.562L4 0.700L12 0.700L13.938 1.562L14.800 3.500L14.800 12.500L13.938 14.438L12 15.300L4 15.300L2.062 14.438L1.200 12.500L1.200 3.500M2.800 3.500L2.800 12.500L3.110 13.390L4 13.700L6.200 13.700L5.634 13.466L5.400 12.900L5.634 12.334L6.189 12.105L5.637 11.863L4.600 9.500L5.637 7.137L7.778 6.197L6.769 5.731L6.200 4.500L6.769 3.269L8 2.700L9.231 3.269L9.800 4.500L9.231 5.731L8.222 6.197L10.363 7.137L11.400 9.500L10.363 11.863L9.811 12.105L10.366 12.334L10.600 12.900L10.366 13.466L9.800 13.700L12 13.700L12.890 13.390L13.200 12.500L13.200 3.500L12.890 2.610L12 2.300L4 2.300L3.110 2.610L2.800 3.500M9.800 9.500L9.314 8.186L8 7.700L6.686 8.186L6.200 9.500L6.686 10.814L8 11.300L9.314 10.814L9.800 9.500M8.200 4.500L8.183 4.317L8 4.300L7.817 4.317L7.800 4.500L7.817 4.683L8 4.700L8.183 4.683L8.200 4.500Z"/>
</svg>
