<svg xmlns="http://www.w3.org/2000/svg" width="16" height="16" viewBox="0 0 16 16">
  <path fill="#2e3436" d="M14.900 8L14.645 9.791L13.930 11.427L12.832 12.832L11.427 13.930L9.791 14.645L8 14.900L6.209 14.645L4.573 13.930L3.168 12.832L2.070 11.427L1.355 9.791L1.100 8L1.355 6.209L2.070 4.573L3.168 3.168L4.573 2.070L6.209 1.355L8 1.100L9.791 1.355L11.427 2.070L12.832 3.168L13.930 4.573L14.645 6.209L14.900 8M13.100 8L12.717 5.962L11.653 4.347L10.038 3.283L8 2.900L5.962 3.283L4.347 4.347L3.283 5.962L2.900 8L3.283 10.038L4.347 11.653L5.962 12.717L8 13.100L10.038 12.717L11.653 11.653L12.717 10.038L13.100 8M5.436 7.564L6.886 9.013L10.650 5.078L11.280 4.800L11.922 5.050L12.200 5.680L11.950 6.322L7.550 10.922L7.260 11.125L6.900 11.200L6.550 11.129L6.264 10.936L6.264 10.936L4.164 8.836L3.900 8.200L4.164 7.564L4.800 7.300L5.436 7.564Z"/>
</svg>
