<svg xmlns="http://www.w3.org/2000/svg" width="16" height="16" viewBox="0 0 16 16">
  <path fill="#2e3436" d="M1.460 4.280L2.442 3.628L3.483 3.094L4.571 2.679L5.695 2.382L6.841 2.204L8 2.145L9.159 2.204L10.305 2.382L11.429 2.679L12.517 3.094L13.558 3.628L14.540 4.280L14.891 4.873L14.720 5.540L14.127 5.891L13.460 5.720L12.438 5.049L11.369 4.526L10.266 4.153L9.139 3.930L8 3.855L6.861 3.930L5.734 4.153L4.631 4.526L3.562 5.049L2.540 5.720L1.873 5.891L1.280 5.540L1.109 4.873L1.460 4.280M4.460 7.280L6.138 6.414L8 6.100L8.636 6.364L8.900 7L8.636 7.636L8 7.900L6.700 8.099L5.540 8.720L4.873 8.891L4.280 8.540L4.109 7.873L4.460 7.280M10.636 9.364L12 10.727L13.364 9.364L14 9.100L14.636 9.364L14.900 10L14.636 10.636L13.273 12L14.636 13.364L14.900 14L14.636 14.636L14 14.900L13.364 14.636L12 13.273L10.636 14.636L10 14.900L9.364 14.636L9.100 14L9.364 13.364L10.727 12L9.364 10.636L9.100 10L9.364 9.364L10 9.100L10.636 9.364Z"/>
</svg>
