<svg xmlns="http://www.w3.org/2000/svg" width="16" height="16" viewBox="0 0 16 16">
  <path fill="#2e3436" d="M0.700 5L1.562 3.062L3.500 2.200L12.500 2.200L14.438 3.062L15.300 5L15.300 11L14.438 12.938L12.500 13.800L3.500 13.800L1.562 12.938L0.700 11L0.700 5M2.300 5L2.300 11L2.610 11.890L3.500 12.200L12.500 12.200L13.390 11.890L13.700 11L13.700 5L13.390 4.110L12.500 3.800L3.500 3.800L2.610 4.110L2.300 5M5.500 8L5.207 8.707L4.500 9L3.793 8.707L3.500 8L3.793 7.293L4.500 7L5.207 7.293L5.500 8M9 8L8.707 8.707L8 9L7.293 8.707L7 8L7.293 7.293L8 7L8.707 7.293L9 8M11 7.200L12.500 7.200L13.066 7.434L13.300 8L13.066 8.566L12.500 8.800L11 8.800L10.434 8.566L10.200 8L10.434 7.434L11 7.200Z"/>
</svg>
